
<global>
amp_veltrack=0
ampeg_attack=0.01
ampeg_release=0.45
</global>

<group>
group_label=PP
xf_cccurve=gain
xfin_hicc1=42
xfout_hicc1=85
xfout_locc1=42

<region>
hikey=g6
hivel=127
lokey=f#6
loop_end=282472
loop_mode=loop_continuous
loop_start=100653
loop_xfade=45454
lovel=0
offset=12879
pitch_keycenter=g6
sample=Violins1_sul_pont_PP_G6.opus
</region>

<region>
hikey=g5
hivel=127
lokey=f#5
loop_end=282472
loop_mode=loop_continuous
loop_start=100653
loop_xfade=45454
lovel=0
offset=13978
pitch_keycenter=g5
sample=Violins1_sul_pont_PP_G5.opus
</region>

<region>
hikey=g4
hivel=127
lokey=f#4
loop_end=282472
loop_mode=loop_continuous
loop_start=100653
loop_xfade=45454
lovel=0
offset=13986
pitch_keycenter=g4
sample=Violins1_sul_pont_PP_G4.opus
</region>

<region>
hivel=127
key=g3
loop_end=282472
loop_mode=loop_continuous
loop_start=100653
loop_xfade=45454
lovel=0
offset=15617
sample=Violins1_sul_pont_PP_G3.opus
</region>

<region>
hikey=f6
hivel=127
lokey=e6
loop_end=282472
loop_mode=loop_continuous
loop_start=100653
loop_xfade=45454
lovel=0
offset=10749
pitch_keycenter=f6
sample=Violins1_sul_pont_PP_F6.opus
</region>

<region>
hikey=f5
hivel=127
lokey=e5
loop_end=282472
loop_mode=loop_continuous
loop_start=100653
loop_xfade=45454
lovel=0
offset=12818
pitch_keycenter=f5
sample=Violins1_sul_pont_PP_F5.opus
</region>

<region>
hikey=f4
hivel=127
lokey=e4
loop_end=282472
loop_mode=loop_continuous
loop_start=100653
loop_xfade=45454
lovel=0
offset=13036
pitch_keycenter=f4
sample=Violins1_sul_pont_PP_F4.opus
</region>

<region>
hikey=d#6
hivel=127
lokey=d6
loop_end=282472
loop_mode=loop_continuous
loop_start=100653
loop_xfade=45454
lovel=0
offset=14880
pitch_keycenter=d#6
sample=Violins1_sul_pont_PP_D#6.opus
</region>

<region>
hikey=d#5
hivel=127
lokey=d5
loop_end=282472
loop_mode=loop_continuous
loop_start=100653
loop_xfade=45454
lovel=0
offset=13020
pitch_keycenter=d#5
sample=Violins1_sul_pont_PP_D#5.opus
</region>

<region>
hikey=d#4
hivel=127
lokey=d4
loop_end=281311
loop_mode=loop_continuous
loop_start=100239
loop_xfade=45268
lovel=0
offset=7133
pitch_keycenter=d#4
sample=Violins1_sul_pont_PP_D#4.opus
</region>

<region>
hikey=c#6
hivel=127
lokey=c6
loop_end=282472
loop_mode=loop_continuous
loop_start=100653
loop_xfade=45454
lovel=0
offset=11703
pitch_keycenter=c#6
sample=Violins1_sul_pont_PP_C#6.opus
</region>

<region>
hikey=c#5
hivel=127
lokey=c5
loop_end=281872
loop_mode=loop_continuous
loop_start=100439
loop_xfade=45358
lovel=0
offset=13033
pitch_keycenter=c#5
sample=Violins1_sul_pont_PP_C#5.opus
</region>

<region>
hikey=c#4
hivel=127
lokey=c4
loop_end=282472
loop_mode=loop_continuous
loop_start=100653
loop_xfade=45454
lovel=0
offset=8483
pitch_keycenter=c#4
sample=Violins1_sul_pont_PP_C#4.opus
</region>

<region>
hikey=E7
hivel=127
lokey=a#6
loop_end=282472
loop_mode=loop_continuous
loop_start=100653
loop_xfade=45454
lovel=0
offset=11662
pitch_keycenter=B6
sample=Violins1_sul_pont_PP_B6.opus
</region>

<region>
hikey=b5
hivel=127
lokey=a#5
loop_end=282472
loop_mode=loop_continuous
loop_start=100653
loop_xfade=45454
lovel=0
offset=14172
pitch_keycenter=b5
sample=Violins1_sul_pont_PP_B5.opus
</region>

<region>
hikey=b4
hivel=127
lokey=a#4
loop_end=282472
loop_mode=loop_continuous
loop_start=100653
loop_xfade=45454
lovel=0
offset=13705
pitch_keycenter=b4
sample=Violins1_sul_pont_PP_B4.opus
</region>

<region>
hikey=b3
hivel=127
lokey=a#3
loop_end=282472
loop_mode=loop_continuous
loop_start=100653
loop_xfade=45454
lovel=0
offset=17429
pitch_keycenter=b3
sample=Violins1_sul_pont_PP_B3.opus
</region>

<region>
hikey=a6
hivel=127
lokey=g#6
loop_end=282472
loop_mode=loop_continuous
loop_start=100653
loop_xfade=45454
lovel=0
offset=13727
pitch_keycenter=a6
sample=Violins1_sul_pont_PP_A6.opus
</region>

<region>
hikey=a5
hivel=127
lokey=g#5
loop_end=282472
loop_mode=loop_continuous
loop_start=100653
loop_xfade=45454
lovel=0
offset=12666
pitch_keycenter=a5
sample=Violins1_sul_pont_PP_A5.opus
</region>

<region>
hikey=a4
hivel=127
lokey=g#4
loop_end=282472
loop_mode=loop_continuous
loop_start=100653
loop_xfade=45454
lovel=0
offset=16200
pitch_keycenter=a4
sample=Violins1_sul_pont_PP_A4.opus
</region>

<region>
hikey=a3
hivel=127
lokey=g#3
loop_end=282472
loop_mode=loop_continuous
loop_start=100653
loop_xfade=45454
lovel=0
offset=14742
pitch_keycenter=a3
sample=Violins1_sul_pont_PP_A3.opus
</region>
</group>

<group>
group_label=MF
xf_cccurve=gain
xfin_hicc1=85
xfin_locc1=42
xfout_hicc1=127
xfout_locc1=85

<region>
hikey=g6
hivel=127
lokey=f#6
loop_end=267965
loop_mode=loop_continuous
loop_start=95484
loop_xfade=43120
lovel=0
pitch_keycenter=g6
sample=Violins1_sul_pont_MF_G6.opus
</region>

<region>
hikey=g5
hivel=127
lokey=f#5
loop_end=268733
loop_mode=loop_continuous
loop_start=95758
loop_xfade=43243
lovel=0
pitch_keycenter=g5
sample=Violins1_sul_pont_MF_G5.opus
</region>

<region>
hikey=g4
hivel=127
lokey=f#4
loop_end=272477
loop_mode=loop_continuous
loop_start=97092
loop_xfade=43846
lovel=0
pitch_keycenter=g4
sample=Violins1_sul_pont_MF_G4.opus
</region>

<region>
hivel=127
key=g3
loop_end=267904
loop_mode=loop_continuous
loop_start=95462
loop_xfade=43110
lovel=0
sample=Violins1_sul_pont_MF_G3.opus
</region>

<region>
hikey=f6
hivel=127
lokey=e6
loop_end=268926
loop_mode=loop_continuous
loop_start=95826
loop_xfade=43275
lovel=0
pitch_keycenter=f6
sample=Violins1_sul_pont_MF_F6.opus
</region>

<region>
hikey=f5
hivel=127
lokey=e5
loop_end=267896
loop_mode=loop_continuous
loop_start=95459
loop_xfade=43109
lovel=0
pitch_keycenter=f5
sample=Violins1_sul_pont_MF_F5.opus
</region>

<region>
hikey=f4
hivel=127
lokey=e4
loop_end=270026
loop_mode=loop_continuous
loop_start=96218
loop_xfade=43452
lovel=0
pitch_keycenter=f4
sample=Violins1_sul_pont_MF_F4.opus
</region>

<region>
hikey=d#6
hivel=127
lokey=d6
loop_end=266668
loop_mode=loop_continuous
loop_start=95022
loop_xfade=42911
lovel=0
pitch_keycenter=d#6
sample=Violins1_sul_pont_MF_D#6.opus
</region>

<region>
hikey=d#5
hivel=127
lokey=d5
loop_end=268717
loop_mode=loop_continuous
loop_start=95752
loop_xfade=43241
lovel=0
pitch_keycenter=d#5
sample=Violins1_sul_pont_MF_D#5.opus
</region>

<region>
hikey=d#4
hivel=127
lokey=d4
loop_end=275468
loop_mode=loop_continuous
loop_start=98157
loop_xfade=44327
lovel=0
pitch_keycenter=d#4
sample=Violins1_sul_pont_MF_D#4.opus
</region>

<region>
hikey=c#6
hivel=127
lokey=c6
loop_end=266853
loop_mode=loop_continuous
loop_start=95088
loop_xfade=42941
lovel=0
pitch_keycenter=c#6
sample=Violins1_sul_pont_MF_C#6.opus
</region>

<region>
hikey=c#5
hivel=127
lokey=c5
loop_end=270014
loop_mode=loop_continuous
loop_start=96214
loop_xfade=43450
lovel=0
pitch_keycenter=c#5
sample=Violins1_sul_pont_MF_C#5.opus
</region>

<region>
hikey=c#4
hivel=127
lokey=c4
loop_end=270501
loop_mode=loop_continuous
loop_start=96387
loop_xfade=43528
lovel=0
pitch_keycenter=c#4
sample=Violins1_sul_pont_MF_C#4.opus
</region>

<region>
hikey=E7
hivel=127
lokey=a#6
loop_end=268772
loop_mode=loop_continuous
loop_start=95771
loop_xfade=43250
lovel=0
pitch_keycenter=B6
sample=Violins1_sul_pont_MF_B6.opus
</region>

<region>
hikey=b5
hivel=127
lokey=a#5
loop_end=268600
loop_mode=loop_continuous
loop_start=95710
loop_xfade=43222
lovel=0
pitch_keycenter=b5
sample=Violins1_sul_pont_MF_B5.opus
</region>

<region>
hikey=b4
hivel=127
lokey=a#4
loop_end=270966
loop_mode=loop_continuous
loop_start=96553
loop_xfade=43603
lovel=0
pitch_keycenter=b4
sample=Violins1_sul_pont_MF_B4.opus
</region>

<region>
hikey=b3
hivel=127
lokey=a#3
loop_end=267548
loop_mode=loop_continuous
loop_start=95335
loop_xfade=43053
lovel=0
pitch_keycenter=b3
sample=Violins1_sul_pont_MF_B3.opus
</region>

<region>
hikey=a6
hivel=127
lokey=g#6
loop_end=269102
loop_mode=loop_continuous
loop_start=95889
loop_xfade=43303
lovel=0
pitch_keycenter=a6
sample=Violins1_sul_pont_MF_A6.opus
</region>

<region>
hikey=a5
hivel=127
lokey=g#5
loop_end=268634
loop_mode=loop_continuous
loop_start=95722
loop_xfade=43228
lovel=0
pitch_keycenter=a5
sample=Violins1_sul_pont_MF_A5.opus
</region>

<region>
hikey=a4
hivel=127
lokey=g#4
loop_end=272604
loop_mode=loop_continuous
loop_start=97137
loop_xfade=43866
lovel=0
pitch_keycenter=a4
sample=Violins1_sul_pont_MF_A4.opus
</region>

<region>
hikey=a3
hivel=127
lokey=g#3
loop_end=271923
loop_mode=loop_continuous
loop_start=96894
loop_xfade=43757
lovel=0
pitch_keycenter=a3
sample=Violins1_sul_pont_MF_A3.opus
</region>
</group>

<group>
group_label=FF
xf_cccurve=gain
xfin_hicc1=127
xfin_locc1=85
xfout_hicc1=127
xfout_locc1=127

<region>
hikey=g6
hivel=127
lokey=f#6
loop_end=268379
loop_mode=loop_continuous
loop_start=95631
loop_xfade=43187
lovel=0
pitch_keycenter=g6
sample=Violins1_sul_pont_FF_G6.opus
</region>

<region>
hikey=g5
hivel=127
lokey=f#5
loop_end=273077
loop_mode=loop_continuous
loop_start=97306
loop_xfade=43942
lovel=0
pitch_keycenter=g5
sample=Violins1_sul_pont_FF_G5.opus
</region>

<region>
hikey=g4
hivel=127
lokey=f#4
loop_end=274606
loop_mode=loop_continuous
loop_start=97850
loop_xfade=44189
lovel=0
pitch_keycenter=g4
sample=Violins1_sul_pont_FF_G4.opus
</region>

<region>
hivel=127
key=g3
loop_end=272983
loop_mode=loop_continuous
loop_start=97272
loop_xfade=43927
lovel=0
sample=Violins1_sul_pont_FF_G3.opus
</region>

<region>
hikey=f6
hivel=127
lokey=e6
loop_end=271476
loop_mode=loop_continuous
loop_start=96735
loop_xfade=43685
lovel=0
pitch_keycenter=f6
sample=Violins1_sul_pont_FF_F6.opus
</region>

<region>
hikey=f5
hivel=127
lokey=e5
loop_end=268828
loop_mode=loop_continuous
loop_start=95791
loop_xfade=43259
lovel=0
pitch_keycenter=f5
sample=Violins1_sul_pont_FF_F5.opus
</region>

<region>
hikey=f4
hivel=127
lokey=e4
loop_end=275858
loop_mode=loop_continuous
loop_start=98296
loop_xfade=44390
lovel=0
pitch_keycenter=f4
sample=Violins1_sul_pont_FF_F4.opus
</region>

<region>
hikey=d#6
hivel=127
lokey=d6
loop_end=270737
loop_mode=loop_continuous
loop_start=96472
loop_xfade=43566
lovel=0
pitch_keycenter=d#6
sample=Violins1_sul_pont_FF_D#6.opus
</region>

<region>
hikey=d#5
hivel=127
lokey=d5
loop_end=273388
loop_mode=loop_continuous
loop_start=97416
loop_xfade=43993
lovel=0
pitch_keycenter=d#5
sample=Violins1_sul_pont_FF_D#5.opus
</region>

<region>
hikey=d#4
hivel=127
lokey=d4
loop_end=273579
loop_mode=loop_continuous
loop_start=97484
loop_xfade=44023
lovel=0
pitch_keycenter=d#4
sample=Violins1_sul_pont_FF_D#4.opus
</region>

<region>
hikey=c#6
hivel=127
lokey=c6
loop_end=270958
loop_mode=loop_continuous
loop_start=96550
loop_xfade=43602
lovel=0
pitch_keycenter=c#6
sample=Violins1_sul_pont_FF_C#6.opus
</region>

<region>
hikey=c#5
hivel=127
lokey=c5
loop_end=270587
loop_mode=loop_continuous
loop_start=96418
loop_xfade=43542
lovel=0
pitch_keycenter=c#5
sample=Violins1_sul_pont_FF_C#5.opus
</region>

<region>
hikey=c#4
hivel=127
lokey=c4
loop_end=275529
loop_mode=loop_continuous
loop_start=98179
loop_xfade=44337
lovel=0
pitch_keycenter=c#4
sample=Violins1_sul_pont_FF_C#4.opus
</region>

<region>
hikey=E7
hivel=127
lokey=a#6
loop_end=270120
loop_mode=loop_continuous
loop_start=96252
loop_xfade=43467
lovel=0
pitch_keycenter=B6
sample=Violins1_sul_pont_FF_B6.opus
</region>

<region>
hikey=b5
hivel=127
lokey=a#5
loop_end=269926
loop_mode=loop_continuous
loop_start=96183
loop_xfade=43435
lovel=0
pitch_keycenter=b5
sample=Violins1_sul_pont_FF_B5.opus
</region>

<region>
hikey=b4
hivel=127
lokey=a#4
loop_end=272116
loop_mode=loop_continuous
loop_start=96963
loop_xfade=43788
lovel=0
pitch_keycenter=b4
sample=Violins1_sul_pont_FF_B4.opus
</region>

<region>
hikey=b3
hivel=127
lokey=a#3
loop_end=276161
loop_mode=loop_continuous
loop_start=98404
loop_xfade=44439
lovel=0
pitch_keycenter=b3
sample=Violins1_sul_pont_FF_B3.opus
</region>

<region>
hikey=a6
hivel=127
lokey=g#6
loop_end=274463
loop_mode=loop_continuous
loop_start=97799
loop_xfade=44166
lovel=0
pitch_keycenter=a6
sample=Violins1_sul_pont_FF_A6.opus
</region>

<region>
hikey=a5
hivel=127
lokey=g#5
loop_end=272942
loop_mode=loop_continuous
loop_start=97257
loop_xfade=43921
lovel=0
pitch_keycenter=a5
sample=Violins1_sul_pont_FF_A5.opus
</region>

<region>
hikey=a4
hivel=127
lokey=g#4
loop_end=274346
loop_mode=loop_continuous
loop_start=97757
loop_xfade=44147
lovel=0
pitch_keycenter=a4
sample=Violins1_sul_pont_FF_A4.opus
</region>

<region>
hikey=a3
hivel=127
lokey=g#3
loop_end=274460
loop_mode=loop_continuous
loop_start=97798
loop_xfade=44165
lovel=0
pitch_keycenter=a3
sample=Violins1_sul_pont_FF_A3.opus
</region>
</group>